<svg xmlns="http://www.w3.org/2000/svg" viewBox="0 0 48 48" width="48" height="48">
  <defs>
    <linearGradient id="agentGrad" x1="0%" y1="0%" x2="100%" y2="100%">
      <stop offset="0%" stop-color="#8B5CF6" />
      <stop offset="100%" stop-color="#EC4899" />
    </linearGradient>
  </defs>
  <rect width="48" height="48" rx="10" fill="url(#agentGrad)"/>
  <!-- Sparkle & Brain/Chip nodes -->
  <path d="M24 11L26.5 19.5L35 22L26.5 24.5L24 33L21.5 24.5L13 22L21.5 19.5L24 11Z" fill="#ffffff"/>
  <path d="M33 30L34.2 34.2L38.4 35.4L34.2 36.6L33 40.8L31.8 36.6L27.6 35.4L31.8 34.2L33 30Z" fill="#ffffff" opacity="0.8"/>
  <path d="M15 13L15.8 15.8L18.6 16.6L15.8 17.4L15 20.2L14.2 17.4L11.4 16.6L14.2 15.8L15 13Z" fill="#ffffff" opacity="0.8"/>
</svg>
